<svg width="2000" height="2000" viewBox="0 0 2000 2000" fill="none" xmlns="http://www.w3.org/2000/svg">
<path d="M187.151 1013.54C187.151 1009.62 187.967 1006.93 189.601 1005.46C191.234 1003.83 193.929 1003.01 197.686 1003.01C202.259 1003.01 205.771 1004.81 208.221 1008.4C210.834 1011.83 212.141 1017.06 212.141 1024.08V1025.79H212.631C216.877 1018.93 222.676 1013.46 230.026 1009.38C237.376 1005.13 245.869 1003.01 255.506 1003.01C278.536 1003.01 290.051 1015.34 290.051 1040V1114.48C290.051 1118.4 289.316 1121.34 287.846 1123.3C286.539 1125.1 284.007 1126 280.251 1126C274.697 1126 270.696 1124.45 268.246 1121.34C265.796 1118.24 264.571 1113.1 264.571 1105.91V1044.66C264.571 1035.68 262.611 1029.22 258.691 1025.3C254.934 1021.38 249.952 1019.42 243.746 1019.42C239.172 1019.42 234.436 1020.73 229.536 1023.34C224.636 1025.79 220.552 1029.22 217.286 1033.63C214.182 1037.88 212.631 1042.54 212.631 1047.6V1108.6C212.631 1115.63 211.406 1120.28 208.956 1122.57C206.669 1124.86 202.667 1126 196.951 1126C193.194 1126 190.581 1125.1 189.111 1123.3C187.804 1121.34 187.151 1118.4 187.151 1114.48V1013.54ZM378.025 1126C360.222 1126 346.42 1120.85 336.62 1110.56C326.82 1100.27 321.92 1084.92 321.92 1064.5C321.92 1043.76 326.902 1028.33 336.865 1018.2C346.828 1008.07 360.548 1003.01 378.025 1003.01C395.502 1003.01 409.222 1008.07 419.185 1018.2C429.148 1028.33 434.13 1043.76 434.13 1064.5C434.13 1084.92 429.23 1100.27 419.43 1110.56C409.63 1120.85 395.828 1126 378.025 1126ZM378.025 1116.2C387.662 1116.2 395.012 1112.52 400.075 1105.17C405.138 1097.66 407.67 1084.1 407.67 1064.5C407.67 1045.23 405.057 1031.84 399.83 1024.32C394.603 1016.65 387.335 1012.81 378.025 1012.81C368.878 1012.81 361.61 1016.65 356.22 1024.32C350.993 1032 348.38 1045.39 348.38 1064.5C348.38 1083.94 350.912 1097.42 355.975 1104.93C361.038 1112.44 368.388 1116.2 378.025 1116.2ZM510.231 1126C496.348 1126 486.629 1122.65 481.076 1115.95C475.686 1109.09 472.991 1099.54 472.991 1087.29V1015.01H458.291C456.331 1015.01 454.779 1014.52 453.636 1013.54C452.493 1012.56 451.921 1011.18 451.921 1009.38C451.921 1008.07 452.329 1007.09 453.146 1006.44C454.126 1005.62 455.841 1004.72 458.291 1003.74C461.558 1002.27 464.334 1000.8 466.621 999.335C468.908 997.865 471.358 995.742 473.971 992.965C477.401 989.372 480.586 984.798 483.526 979.245C485.159 976.468 486.466 974.59 487.446 973.61C488.589 972.63 490.059 972.14 491.856 972.14C494.633 972.14 496.429 973.12 497.246 975.08C498.063 977.04 498.471 980.552 498.471 985.615V1003.01H528.116C529.913 1003.01 531.301 1003.66 532.281 1004.97C533.424 1006.11 533.996 1007.5 533.996 1009.13C533.996 1010.77 533.424 1012.16 532.281 1013.3C531.301 1014.44 529.913 1015.01 528.116 1015.01H498.471V1092.92C498.471 1100.6 499.859 1106.24 502.636 1109.83C505.576 1113.42 509.088 1115.22 513.171 1115.22C518.071 1115.22 521.828 1113.99 524.441 1111.54C527.054 1109.09 529.586 1105.66 532.036 1101.25C533.669 1098.15 535.139 1095.86 536.446 1094.39C537.916 1092.92 539.713 1092.19 541.836 1092.19C543.796 1092.19 545.348 1092.76 546.491 1093.9C547.634 1094.88 548.206 1096.27 548.206 1098.07C548.206 1099.38 547.798 1101.01 546.981 1102.97C546.164 1104.77 545.348 1106.24 544.531 1107.38C540.448 1113.59 535.384 1118.24 529.341 1121.34C523.298 1124.45 516.928 1126 510.231 1126ZM657.178 1095.13C658.811 1093.33 660.853 1092.43 663.303 1092.43C664.773 1092.43 666.079 1092.92 667.223 1093.9C668.366 1094.88 668.938 1096.11 668.938 1097.58C668.938 1100.52 667.876 1103.3 665.753 1105.91C654.973 1119.3 639.946 1126 620.673 1126C601.563 1126 587.108 1120.85 577.308 1110.56C567.671 1100.11 562.853 1085.74 562.853 1067.44C562.853 1046.54 567.753 1030.61 577.553 1019.67C587.353 1008.56 601.563 1003.01 620.183 1003.01C635.046 1003.01 646.969 1007.26 655.953 1015.75C664.936 1024.24 669.428 1036.41 669.428 1052.25C669.428 1060.26 664.773 1064.26 655.463 1064.26H589.558C589.394 1065.57 589.313 1067.36 589.313 1069.65C589.313 1083.7 592.089 1094.8 597.643 1102.97C603.196 1111.14 611.771 1115.22 623.368 1115.22C631.208 1115.22 637.414 1113.59 641.988 1110.32C646.561 1107.05 650.073 1103.95 652.523 1101.01C654.973 1097.91 656.524 1095.95 657.178 1095.13ZM618.713 1012.81C610.873 1012.81 604.421 1016.16 599.358 1022.85C594.294 1029.55 591.273 1039.92 590.293 1053.97H636.108C639.048 1053.97 641.171 1053.48 642.478 1052.5C643.784 1051.36 644.438 1049.48 644.438 1046.86C644.438 1035.92 641.824 1027.51 636.598 1021.63C631.534 1015.75 625.573 1012.81 618.713 1012.81ZM782.713 1095.13C784.347 1093.33 786.388 1092.43 788.838 1092.43C790.308 1092.43 791.615 1092.92 792.758 1093.9C793.902 1094.88 794.473 1096.11 794.473 1097.58C794.473 1100.52 793.412 1103.3 791.288 1105.91C780.508 1119.3 765.727 1126 746.943 1126C727.507 1126 713.378 1120.53 704.558 1109.58C695.902 1098.64 691.573 1083.7 691.573 1064.75C691.573 1043.35 696.882 1027.75 707.498 1017.95C718.115 1007.99 732.162 1003.01 749.638 1003.01C760.418 1003.01 769.973 1005.46 778.303 1010.36C787.287 1015.75 791.778 1022.04 791.778 1029.22C791.778 1032.16 790.717 1034.53 788.593 1036.33C786.47 1037.96 784.102 1038.78 781.488 1038.78C777.895 1038.78 775.037 1037.96 772.913 1036.33C770.953 1034.53 769.402 1031.92 768.258 1028.49C766.625 1023.75 764.338 1020 761.398 1017.22C758.622 1014.28 754.538 1012.81 749.148 1012.81C738.532 1012.81 730.692 1016.73 725.628 1024.57C720.565 1032.25 718.033 1045.64 718.033 1064.75C718.033 1081.57 720.402 1094.23 725.138 1102.72C730.038 1111.05 738.205 1115.22 749.638 1115.22C757.315 1115.22 763.358 1113.67 767.768 1110.56C772.178 1107.46 775.608 1104.36 778.058 1101.25C780.508 1097.99 782.06 1095.95 782.713 1095.13ZM845.736 1109.34C845.736 1116.2 844.592 1120.69 842.306 1122.81C840.019 1124.94 835.936 1126 830.056 1126C826.299 1126 823.686 1125.1 822.216 1123.3C820.909 1121.34 820.256 1118.4 820.256 1114.48V951.315C820.256 947.395 820.909 944.537 822.216 942.74C823.686 940.78 826.299 939.8 830.056 939.8C835.609 939.8 839.611 941.352 842.061 944.455C844.511 947.558 845.736 952.703 845.736 959.89V1109.34ZM935.017 1126C917.214 1126 903.412 1120.85 893.612 1110.56C883.812 1100.27 878.912 1084.92 878.912 1064.5C878.912 1043.76 883.894 1028.33 893.857 1018.2C903.82 1008.07 917.54 1003.01 935.017 1003.01C952.494 1003.01 966.214 1008.07 976.177 1018.2C986.14 1028.33 991.122 1043.76 991.122 1064.5C991.122 1084.92 986.222 1100.27 976.422 1110.56C966.622 1120.85 952.82 1126 935.017 1126ZM935.017 1116.2C944.654 1116.2 952.004 1112.52 957.067 1105.17C962.13 1097.66 964.662 1084.1 964.662 1064.5C964.662 1045.23 962.049 1031.84 956.822 1024.32C951.595 1016.65 944.327 1012.81 935.017 1012.81C925.87 1012.81 918.602 1016.65 913.212 1024.32C907.985 1032 905.372 1045.39 905.372 1064.5C905.372 1083.94 907.904 1097.42 912.967 1104.93C918.03 1112.44 925.38 1116.2 935.017 1116.2ZM1048.36 1084.35C1048.36 1093.33 1050.24 1099.78 1053.99 1103.7C1057.91 1107.62 1062.98 1109.58 1069.18 1109.58C1073.76 1109.58 1078.49 1108.36 1083.39 1105.91C1088.29 1103.3 1092.29 1099.87 1095.4 1095.62C1098.66 1091.21 1100.3 1086.47 1100.3 1081.41V1020.65C1100.3 1013.63 1101.44 1008.97 1103.73 1006.68C1106.18 1004.23 1110.26 1003.01 1115.98 1003.01C1119.73 1003.01 1122.27 1003.99 1123.57 1005.95C1125.04 1007.75 1125.78 1010.6 1125.78 1014.52V1115.46C1125.78 1119.38 1124.96 1122.16 1123.33 1123.79C1121.69 1125.26 1119 1126 1115.24 1126C1110.51 1126 1106.91 1124.37 1104.46 1121.1C1102.01 1117.83 1100.79 1112.44 1100.79 1104.93V1103.21H1100.3C1096.05 1110.07 1090.25 1115.63 1082.9 1119.87C1075.55 1123.96 1067.06 1126 1057.42 1126C1034.39 1126 1022.88 1113.67 1022.88 1089V1014.52C1022.88 1010.6 1023.53 1007.75 1024.84 1005.95C1026.31 1003.99 1028.92 1003.01 1032.68 1003.01C1038.23 1003.01 1042.23 1004.56 1044.68 1007.66C1047.13 1010.77 1048.36 1015.91 1048.36 1023.1V1084.35ZM1215.96 1003.01C1223.96 1003.01 1231.39 1004.4 1238.25 1007.17V959.89C1238.25 952.703 1239.48 947.558 1241.93 944.455C1244.38 941.352 1248.38 939.8 1253.93 939.8C1257.69 939.8 1260.22 940.78 1261.53 942.74C1263 944.537 1263.73 947.395 1263.73 951.315V1114.48C1263.73 1118.4 1263.08 1121.34 1261.77 1123.3C1260.47 1125.1 1257.93 1126 1254.18 1126C1244.21 1126 1239.23 1117.51 1239.23 1100.52L1238.5 1100.27C1233.76 1108.11 1228.37 1114.4 1222.33 1119.14C1216.28 1123.71 1208.69 1126 1199.54 1126C1187.62 1126 1177.66 1121.59 1169.65 1112.77C1161.65 1103.79 1157.65 1089.49 1157.65 1069.89C1157.65 1047.03 1162.71 1030.2 1172.84 1019.42C1182.96 1008.48 1197.34 1003.01 1215.96 1003.01ZM1184.11 1067.93C1184.11 1082.63 1186.39 1093.25 1190.97 1099.78C1195.7 1106.32 1201.83 1109.58 1209.34 1109.58C1213.75 1109.58 1218.24 1108.03 1222.82 1104.93C1227.39 1101.66 1231.15 1097.66 1234.09 1092.92C1237.03 1088.02 1238.5 1083.21 1238.5 1078.47V1027.26C1238.5 1023.67 1236.46 1020.4 1232.37 1017.46C1228.29 1014.36 1222.82 1012.81 1215.96 1012.81C1205.5 1012.81 1197.58 1016.89 1192.19 1025.06C1186.8 1033.06 1184.11 1047.35 1184.11 1067.93Z" fill="black"/>
<g clip-path="url(#clip0_0_1)">
<path d="M187.151 1013.54C187.151 1009.62 187.967 1006.93 189.601 1005.46C191.234 1003.83 193.929 1003.01 197.686 1003.01C202.259 1003.01 205.771 1004.81 208.221 1008.4C210.834 1011.83 212.141 1017.06 212.141 1024.08V1025.79H212.631C216.877 1018.93 222.676 1013.46 230.026 1009.38C237.376 1005.13 245.869 1003.01 255.506 1003.01C278.536 1003.01 290.051 1015.34 290.051 1040V1114.48C290.051 1118.4 289.316 1121.34 287.846 1123.3C286.539 1125.1 284.007 1126 280.251 1126C274.697 1126 270.696 1124.45 268.246 1121.34C265.796 1118.24 264.571 1113.1 264.571 1105.91V1044.66C264.571 1035.68 262.611 1029.22 258.691 1025.3C254.934 1021.38 249.952 1019.42 243.746 1019.42C239.172 1019.42 234.436 1020.73 229.536 1023.34C224.636 1025.79 220.552 1029.22 217.286 1033.63C214.182 1037.88 212.631 1042.54 212.631 1047.6V1108.6C212.631 1115.63 211.406 1120.28 208.956 1122.57C206.669 1124.86 202.667 1126 196.951 1126C193.194 1126 190.581 1125.1 189.111 1123.3C187.804 1121.34 187.151 1118.4 187.151 1114.48V1013.54ZM378.025 1126C360.222 1126 346.42 1120.85 336.62 1110.56C326.82 1100.27 321.92 1084.92 321.92 1064.5C321.92 1043.76 326.902 1028.33 336.865 1018.2C346.828 1008.07 360.548 1003.01 378.025 1003.01C395.502 1003.01 409.222 1008.07 419.185 1018.2C429.148 1028.33 434.13 1043.76 434.13 1064.5C434.13 1084.92 429.23 1100.27 419.43 1110.56C409.63 1120.85 395.828 1126 378.025 1126ZM378.025 1116.2C387.662 1116.2 395.012 1112.52 400.075 1105.17C405.138 1097.66 407.67 1084.1 407.67 1064.5C407.67 1045.23 405.057 1031.84 399.83 1024.32C394.603 1016.65 387.335 1012.81 378.025 1012.81C368.878 1012.81 361.61 1016.65 356.22 1024.32C350.993 1032 348.38 1045.39 348.38 1064.5C348.38 1083.94 350.912 1097.42 355.975 1104.93C361.038 1112.44 368.388 1116.2 378.025 1116.2ZM510.231 1126C496.348 1126 486.629 1122.65 481.076 1115.95C475.686 1109.09 472.991 1099.54 472.991 1087.29V1015.01H458.291C456.331 1015.01 454.779 1014.52 453.636 1013.54C452.493 1012.56 451.921 1011.18 451.921 1009.38C451.921 1008.07 452.329 1007.09 453.146 1006.44C454.126 1005.62 455.841 1004.72 458.291 1003.74C461.558 1002.27 464.334 1000.8 466.621 999.335C468.908 997.865 471.358 995.742 473.971 992.965C477.401 989.372 480.586 984.798 483.526 979.245C485.159 976.468 486.466 974.59 487.446 973.61C488.589 972.63 490.059 972.14 491.856 972.14C494.633 972.14 496.429 973.12 497.246 975.08C498.063 977.04 498.471 980.552 498.471 985.615V1003.01H528.116C529.913 1003.01 531.301 1003.66 532.281 1004.97C533.424 1006.11 533.996 1007.5 533.996 1009.13C533.996 1010.77 533.424 1012.16 532.281 1013.3C531.301 1014.44 529.913 1015.01 528.116 1015.01H498.471V1092.92C498.471 1100.6 499.859 1106.24 502.636 1109.83C505.576 1113.42 509.088 1115.22 513.171 1115.22C518.071 1115.22 521.828 1113.99 524.441 1111.54C527.054 1109.09 529.586 1105.66 532.036 1101.25C533.669 1098.15 535.139 1095.86 536.446 1094.39C537.916 1092.92 539.713 1092.19 541.836 1092.19C543.796 1092.19 545.348 1092.76 546.491 1093.9C547.634 1094.88 548.206 1096.27 548.206 1098.07C548.206 1099.38 547.798 1101.01 546.981 1102.97C546.164 1104.77 545.348 1106.24 544.531 1107.38C540.448 1113.59 535.384 1118.24 529.341 1121.34C523.298 1124.45 516.928 1126 510.231 1126ZM657.178 1095.13C658.811 1093.33 660.853 1092.43 663.303 1092.43C664.773 1092.43 666.079 1092.92 667.223 1093.9C668.366 1094.88 668.938 1096.11 668.938 1097.58C668.938 1100.52 667.876 1103.3 665.753 1105.91C654.973 1119.3 639.946 1126 620.673 1126C601.563 1126 587.108 1120.85 577.308 1110.56C567.671 1100.11 562.853 1085.74 562.853 1067.44C562.853 1046.54 567.753 1030.61 577.553 1019.67C587.353 1008.56 601.563 1003.01 620.183 1003.01C635.046 1003.01 646.969 1007.26 655.953 1015.75C664.936 1024.24 669.428 1036.41 669.428 1052.25C669.428 1060.26 664.773 1064.26 655.463 1064.26H589.558C589.394 1065.57 589.313 1067.36 589.313 1069.65C589.313 1083.7 592.089 1094.8 597.643 1102.97C603.196 1111.14 611.771 1115.22 623.368 1115.22C631.208 1115.22 637.414 1113.59 641.988 1110.32C646.561 1107.05 650.073 1103.95 652.523 1101.01C654.973 1097.91 656.524 1095.95 657.178 1095.13ZM618.713 1012.81C610.873 1012.81 604.421 1016.16 599.358 1022.85C594.294 1029.55 591.273 1039.92 590.293 1053.97H636.108C639.048 1053.97 641.171 1053.48 642.478 1052.5C643.784 1051.36 644.438 1049.48 644.438 1046.86C644.438 1035.92 641.824 1027.51 636.598 1021.63C631.534 1015.75 625.573 1012.81 618.713 1012.81ZM782.713 1095.13C784.347 1093.33 786.388 1092.43 788.838 1092.43C790.308 1092.43 791.615 1092.92 792.758 1093.9C793.902 1094.88 794.473 1096.11 794.473 1097.58C794.473 1100.52 793.412 1103.3 791.288 1105.91C780.508 1119.3 765.727 1126 746.943 1126C727.507 1126 713.378 1120.53 704.558 1109.58C695.902 1098.64 691.573 1083.7 691.573 1064.75C691.573 1043.35 696.882 1027.75 707.498 1017.95C718.115 1007.99 732.162 1003.01 749.638 1003.01C760.418 1003.01 769.973 1005.46 778.303 1010.36C787.287 1015.75 791.778 1022.04 791.778 1029.22C791.778 1032.16 790.717 1034.53 788.593 1036.33C786.47 1037.96 784.102 1038.78 781.488 1038.78C777.895 1038.78 775.037 1037.96 772.913 1036.33C770.953 1034.53 769.402 1031.92 768.258 1028.49C766.625 1023.75 764.338 1020 761.398 1017.22C758.622 1014.28 754.538 1012.81 749.148 1012.81C738.532 1012.81 730.692 1016.73 725.628 1024.57C720.565 1032.25 718.033 1045.64 718.033 1064.75C718.033 1081.57 720.402 1094.23 725.138 1102.72C730.038 1111.05 738.205 1115.22 749.638 1115.22C757.315 1115.22 763.358 1113.67 767.768 1110.56C772.178 1107.46 775.608 1104.36 778.058 1101.25C780.508 1097.99 782.06 1095.95 782.713 1095.13ZM845.736 1109.34C845.736 1116.2 844.592 1120.69 842.306 1122.81C840.019 1124.94 835.936 1126 830.056 1126C826.299 1126 823.686 1125.1 822.216 1123.3C820.909 1121.34 820.256 1118.4 820.256 1114.48V951.315C820.256 947.395 820.909 944.537 822.216 942.74C823.686 940.78 826.299 939.8 830.056 939.8C835.609 939.8 839.611 941.352 842.061 944.455C844.511 947.558 845.736 952.703 845.736 959.89V1109.34ZM935.017 1126C917.214 1126 903.412 1120.85 893.612 1110.56C883.812 1100.27 878.912 1084.92 878.912 1064.5C878.912 1043.76 883.894 1028.33 893.857 1018.2C903.82 1008.07 917.54 1003.01 935.017 1003.01C952.494 1003.01 966.214 1008.07 976.177 1018.2C986.14 1028.33 991.122 1043.76 991.122 1064.5C991.122 1084.92 986.222 1100.27 976.422 1110.56C966.622 1120.85 952.82 1126 935.017 1126ZM935.017 1116.2C944.654 1116.2 952.004 1112.52 957.067 1105.17C962.13 1097.66 964.662 1084.1 964.662 1064.5C964.662 1045.23 962.049 1031.84 956.822 1024.32C951.595 1016.65 944.327 1012.81 935.017 1012.81C925.87 1012.81 918.602 1016.65 913.212 1024.32C907.985 1032 905.372 1045.39 905.372 1064.5C905.372 1083.94 907.904 1097.42 912.967 1104.93C918.03 1112.44 925.38 1116.2 935.017 1116.2ZM1048.36 1084.35C1048.36 1093.33 1050.24 1099.78 1053.99 1103.7C1057.91 1107.62 1062.98 1109.58 1069.18 1109.58C1073.76 1109.58 1078.49 1108.36 1083.39 1105.91C1088.29 1103.3 1092.29 1099.87 1095.4 1095.62C1098.66 1091.21 1100.3 1086.47 1100.3 1081.41V1020.65C1100.3 1013.63 1101.44 1008.97 1103.73 1006.68C1106.18 1004.23 1110.26 1003.01 1115.98 1003.01C1119.73 1003.01 1122.27 1003.99 1123.57 1005.95C1125.04 1007.75 1125.78 1010.6 1125.78 1014.52V1115.46C1125.78 1119.38 1124.96 1122.16 1123.33 1123.79C1121.69 1125.26 1119 1126 1115.24 1126C1110.51 1126 1106.91 1124.37 1104.46 1121.1C1102.01 1117.83 1100.79 1112.44 1100.79 1104.93V1103.21H1100.3C1096.05 1110.07 1090.25 1115.63 1082.9 1119.87C1075.55 1123.96 1067.06 1126 1057.42 1126C1034.39 1126 1022.88 1113.67 1022.88 1089V1014.52C1022.88 1010.6 1023.53 1007.75 1024.84 1005.95C1026.31 1003.99 1028.92 1003.01 1032.68 1003.01C1038.23 1003.01 1042.23 1004.56 1044.68 1007.66C1047.13 1010.77 1048.36 1015.91 1048.36 1023.1V1084.35ZM1215.96 1003.01C1223.96 1003.01 1231.39 1004.4 1238.25 1007.17V959.89C1238.25 952.703 1239.48 947.558 1241.93 944.455C1244.38 941.352 1248.38 939.8 1253.93 939.8C1257.69 939.8 1260.22 940.78 1261.53 942.74C1263 944.537 1263.73 947.395 1263.73 951.315V1114.48C1263.73 1118.4 1263.08 1121.34 1261.77 1123.3C1260.47 1125.1 1257.93 1126 1254.18 1126C1244.21 1126 1239.23 1117.51 1239.23 1100.52L1238.5 1100.27C1233.76 1108.11 1228.37 1114.4 1222.33 1119.14C1216.28 1123.71 1208.69 1126 1199.54 1126C1187.62 1126 1177.66 1121.59 1169.65 1112.77C1161.65 1103.79 1157.65 1089.49 1157.65 1069.89C1157.65 1047.03 1162.71 1030.2 1172.84 1019.42C1182.96 1008.48 1197.34 1003.01 1215.96 1003.01ZM1184.11 1067.93C1184.11 1082.63 1186.39 1093.25 1190.97 1099.78C1195.7 1106.32 1201.83 1109.58 1209.34 1109.58C1213.75 1109.58 1218.24 1108.03 1222.82 1104.93C1227.39 1101.66 1231.15 1097.66 1234.09 1092.92C1237.03 1088.02 1238.5 1083.21 1238.5 1078.47V1027.26C1238.5 1023.67 1236.46 1020.4 1232.37 1017.46C1228.29 1014.36 1222.82 1012.81 1215.96 1012.81C1205.5 1012.81 1197.58 1016.89 1192.19 1025.06C1186.8 1033.06 1184.11 1047.35 1184.11 1067.93Z" fill="url(#paint0_linear_0_1)"/>
</g>
<path d="M1404.22 1066.61C1404.22 1099.41 1377.08 1126 1343.61 1126C1310.14 1126 1283 1099.41 1283 1066.61C1283 1033.82 1310.14 1007.23 1343.61 1007.23C1377.08 1007.23 1404.22 1033.82 1404.22 1066.61Z" fill="url(#paint1_linear_0_1)"/>
<path d="M1855 1050.7C1855 1092.29 1825.35 1126 1788.78 1126C1752.2 1126 1722.55 1092.29 1722.55 1050.7C1722.55 1009.11 1752.2 975.402 1788.78 975.402C1825.35 975.402 1855 1009.11 1855 1050.7Z" fill="url(#paint2_linear_0_1)"/>
<path d="M1494.45 1020.43C1494.45 1053.22 1467.23 1079.81 1433.65 1079.81C1400.07 1079.81 1372.85 1053.22 1372.85 1020.43C1372.85 987.629 1400.07 961.041 1433.65 961.041C1467.23 961.041 1494.45 987.629 1494.45 1020.43Z" fill="url(#paint3_linear_0_1)"/>
<path d="M1586.27 946.811C1580.87 985.664 1542.49 1012.41 1500.54 1006.55C1458.6 1000.69 1428.98 964.443 1434.38 925.59C1439.79 886.738 1478.17 859.992 1520.11 865.852C1562.06 871.711 1591.68 907.958 1586.27 946.811Z" fill="url(#paint4_linear_0_1)"/>
<path d="M1673.71 925.343C1668.31 964.195 1631.1 991.106 1590.61 985.449C1550.12 979.792 1521.68 943.71 1527.08 904.857C1532.49 866.005 1569.69 839.094 1610.18 844.751C1650.67 850.408 1679.12 886.49 1673.71 925.343Z" fill="url(#paint5_linear_0_1)"/>
<path d="M1784.08 985.504C1778.68 1024.36 1741.48 1051.27 1700.99 1045.61C1660.5 1039.95 1632.05 1003.87 1637.46 965.019C1642.86 926.166 1680.06 899.256 1720.55 904.912C1761.04 910.569 1789.49 946.651 1784.08 985.504Z" fill="url(#paint6_linear_0_1)"/>
<path d="M1343.41 1048.37H1793.81V1126H1343.41V1048.37Z" fill="url(#paint7_linear_0_1)"/>
<path d="M1479.73 971.521H1731.85V1066.61H1479.73V971.521Z" fill="url(#paint8_linear_0_1)"/>
<path d="M2 1H1998V-1H2V1ZM1999 2V1998H2001V2H1999ZM1998 1999H1.99997V2001H1998V1999ZM1 1998V1.99997H-1V1998H1ZM1.99997 1999C1.44771 1999 1 1998.55 1 1998H-1C-1 1999.66 0.343103 2001 1.99997 2001V1999ZM1999 1998C1999 1998.55 1998.55 1999 1998 1999V2001C1999.66 2001 2001 1999.66 2001 1998H1999ZM1998 1C1998.55 1 1999 1.4477 1999 2H2001C2001 0.343163 1999.66 -1 1998 -1V1ZM2 -1C0.343163 -1 -1 0.343103 -1 1.99997H1C1 1.44771 1.4477 1 2 1V-1Z" fill="black" fill-opacity="0.1"/>
<defs>
<linearGradient id="paint0_linear_0_1" x1="725.5" y1="888" x2="725.5" y2="1156" gradientUnits="userSpaceOnUse">
<stop stop-color="#E7B8DE"/>
<stop offset="1" stop-color="#BFB4EB"/>
</linearGradient>
<linearGradient id="paint1_linear_0_1" x1="1569" y1="844" x2="1569" y2="1126" gradientUnits="userSpaceOnUse">
<stop stop-color="#E7B8DE"/>
<stop offset="1" stop-color="#BFB4EB"/>
</linearGradient>
<linearGradient id="paint2_linear_0_1" x1="1569" y1="844" x2="1569" y2="1126" gradientUnits="userSpaceOnUse">
<stop stop-color="#E7B8DE"/>
<stop offset="1" stop-color="#BFB4EB"/>
</linearGradient>
<linearGradient id="paint3_linear_0_1" x1="1569" y1="844" x2="1569" y2="1126" gradientUnits="userSpaceOnUse">
<stop stop-color="#E7B8DE"/>
<stop offset="1" stop-color="#BFB4EB"/>
</linearGradient>
<linearGradient id="paint4_linear_0_1" x1="1569" y1="844" x2="1569" y2="1126" gradientUnits="userSpaceOnUse">
<stop stop-color="#E7B8DE"/>
<stop offset="1" stop-color="#BFB4EB"/>
</linearGradient>
<linearGradient id="paint5_linear_0_1" x1="1569" y1="844" x2="1569" y2="1126" gradientUnits="userSpaceOnUse">
<stop stop-color="#E7B8DE"/>
<stop offset="1" stop-color="#BFB4EB"/>
</linearGradient>
<linearGradient id="paint6_linear_0_1" x1="1569" y1="844" x2="1569" y2="1126" gradientUnits="userSpaceOnUse">
<stop stop-color="#E7B8DE"/>
<stop offset="1" stop-color="#BFB4EB"/>
</linearGradient>
<linearGradient id="paint7_linear_0_1" x1="1569" y1="844" x2="1569" y2="1126" gradientUnits="userSpaceOnUse">
<stop stop-color="#E7B8DE"/>
<stop offset="1" stop-color="#BFB4EB"/>
</linearGradient>
<linearGradient id="paint8_linear_0_1" x1="1569" y1="844" x2="1569" y2="1126" gradientUnits="userSpaceOnUse">
<stop stop-color="#E7B8DE"/>
<stop offset="1" stop-color="#BFB4EB"/>
</linearGradient>
<clipPath id="clip0_0_1">
<rect width="625" height="268" fill="white" transform="translate(682 888)"/>
</clipPath>
</defs>
</svg>
